<?xml version="1.0" encoding="utf-8" standalone="no"?>
<!DOCTYPE svg PUBLIC "-//W3C//DTD SVG 1.1//EN"
  "http://www.w3.org/Graphics/SVG/1.1/DTD/svg11.dtd">
<svg height="83.394618pt" version="1.1" viewBox="0 0 104.230084 83.394618" width="104.230084pt" xmlns="http://www.w3.org/2000/svg" xmlns:xlink="http://www.w3.org/1999/xlink">
 <metadata>
  <rdf:RDF xmlns:cc="http://creativecommons.org/ns#" xmlns:dc="http://purl.org/dc/elements/1.1/" xmlns:rdf="http://www.w3.org/1999/02/22-rdf-syntax-ns#">
   <cc:Work>
    <dc:type rdf:resource="http://purl.org/dc/dcmitype/StillImage"/>
    <dc:date>2024-01-31T11:01:52.209987</dc:date>
    <dc:format>image/svg+xml</dc:format>
    <dc:creator>
     <cc:Agent>
      <dc:title>Matplotlib v3.4.2, https://matplotlib.org/</dc:title>
     </cc:Agent>
    </dc:creator>
   </cc:Work>
  </rdf:RDF>
 </metadata>
 <defs>
  <style type="text/css">*{stroke-linecap:butt;stroke-linejoin:round;}</style>
 </defs>
 <g id="figure_1">
  <g id="patch_1">
   <path d="M 0 83.394618 
L 104.230084 83.394618 
L 104.230084 -0 
L 0 -0 
z
" style="fill:#ffffff;"/>
  </g>
  <g id="axes_1">
   <g id="patch_2">
    <path d="M 14.854824 69.840412 
L 98.554824 69.840412 
L 98.554824 6.084412 
L 14.854824 6.084412 
z
" style="fill:#ffffff;"/>
   </g>
   <g id="matplotlib.axis_1">
    <g id="xtick_1">
     <g id="line2d_1">
      <defs>
       <path d="M 0 0 
L 0 -3 
" id="mefb9e37cfb" style="stroke:#000000;stroke-width:0.5;"/>
      </defs>
      <g>
       <use style="stroke:#000000;stroke-width:0.5;" x="16.656978" xlink:href="#mefb9e37cfb" y="69.840412"/>
      </g>
     </g>
     <g id="line2d_2">
      <defs>
       <path d="M 0 0 
L 0 3 
" id="m54449f9760" style="stroke:#000000;stroke-width:0.5;"/>
      </defs>
      <g>
       <use style="stroke:#000000;stroke-width:0.5;" x="16.656978" xlink:href="#m54449f9760" y="6.084412"/>
      </g>
     </g>
     <g id="text_1">
      <!-- $\mathdefault{0}$ -->
      <g transform="translate(14.718271 78.309236)scale(0.07 -0.07)">
       <defs>
        <path d="M 1760 4544 
C 1338 4544 954 4360 717 4046 
C 422 3651 275 3044 275 2208 
C 275 683 787 -128 1760 -128 
C 2720 -128 3245 683 3245 2170 
C 3245 3050 3104 3638 2803 4046 
C 2566 4366 2189 4544 1760 4544 
z
M 1760 4044 
C 2368 4044 2669 3432 2669 2221 
C 2669 939 2374 340 1747 340 
C 1152 340 851 965 851 2202 
C 851 3438 1152 4044 1760 4044 
z
" id="NimbusSanL-Regu-30" transform="scale(0.015625)"/>
       </defs>
       <use transform="scale(0.996264)" xlink:href="#NimbusSanL-Regu-30"/>
      </g>
     </g>
    </g>
    <g id="xtick_2">
     <g id="line2d_3">
      <g>
       <use style="stroke:#000000;stroke-width:0.5;" x="56.704824" xlink:href="#mefb9e37cfb" y="69.840412"/>
      </g>
     </g>
     <g id="line2d_4">
      <g>
       <use style="stroke:#000000;stroke-width:0.5;" x="56.704824" xlink:href="#m54449f9760" y="6.084412"/>
      </g>
     </g>
     <g id="text_2">
      <!-- $\mathdefault{10}$ -->
      <g transform="translate(52.827412 78.309236)scale(0.07 -0.07)">
       <defs>
        <path d="M 1658 3238 
L 1658 0 
L 2221 0 
L 2221 4545 
L 1850 4545 
C 1651 3847 1523 3751 653 3642 
L 653 3238 
L 1658 3238 
z
" id="NimbusSanL-Regu-31" transform="scale(0.015625)"/>
       </defs>
       <use transform="scale(0.996264)" xlink:href="#NimbusSanL-Regu-31"/>
       <use transform="translate(55.391677 0)scale(0.996264)" xlink:href="#NimbusSanL-Regu-30"/>
      </g>
     </g>
    </g>
    <g id="xtick_3">
     <g id="line2d_5">
      <g>
       <use style="stroke:#000000;stroke-width:0.5;" x="96.752671" xlink:href="#mefb9e37cfb" y="69.840412"/>
      </g>
     </g>
     <g id="line2d_6">
      <g>
       <use style="stroke:#000000;stroke-width:0.5;" x="96.752671" xlink:href="#m54449f9760" y="6.084412"/>
      </g>
     </g>
     <g id="text_3">
      <!-- $\mathdefault{20}$ -->
      <g transform="translate(92.875259 78.309236)scale(0.07 -0.07)">
       <defs>
        <path d="M 3238 558 
L 851 558 
C 909 930 1114 1167 1670 1494 
L 2310 1840 
C 2944 2186 3270 2653 3270 3211 
C 3270 3589 3117 3942 2848 4185 
C 2579 4429 2246 4544 1818 4544 
C 1242 4544 813 4339 563 3955 
C 403 3711 333 3429 320 2967 
L 883 2967 
C 902 3275 941 3461 1018 3608 
C 1165 3884 1459 4051 1798 4051 
C 2310 4051 2694 3685 2694 3198 
C 2694 2839 2483 2531 2080 2301 
L 1491 1968 
C 544 1430 269 1000 218 0 
L 3238 0 
L 3238 558 
z
" id="NimbusSanL-Regu-32" transform="scale(0.015625)"/>
       </defs>
       <use transform="scale(0.996264)" xlink:href="#NimbusSanL-Regu-32"/>
       <use transform="translate(55.391677 0)scale(0.996264)" xlink:href="#NimbusSanL-Regu-30"/>
      </g>
     </g>
    </g>
    <g id="xtick_4">
     <g id="line2d_7">
      <defs>
       <path d="M 0 0 
L 0 -1.5 
" id="m412b06a38b" style="stroke:#000000;stroke-width:0.5;"/>
      </defs>
      <g>
       <use style="stroke:#000000;stroke-width:0.5;" x="24.666547" xlink:href="#m412b06a38b" y="69.840412"/>
      </g>
     </g>
     <g id="line2d_8">
      <defs>
       <path d="M 0 0 
L 0 1.5 
" id="macdd02f504" style="stroke:#000000;stroke-width:0.5;"/>
      </defs>
      <g>
       <use style="stroke:#000000;stroke-width:0.5;" x="24.666547" xlink:href="#macdd02f504" y="6.084412"/>
      </g>
     </g>
    </g>
    <g id="xtick_5">
     <g id="line2d_9">
      <g>
       <use style="stroke:#000000;stroke-width:0.5;" x="32.676116" xlink:href="#m412b06a38b" y="69.840412"/>
      </g>
     </g>
     <g id="line2d_10">
      <g>
       <use style="stroke:#000000;stroke-width:0.5;" x="32.676116" xlink:href="#macdd02f504" y="6.084412"/>
      </g>
     </g>
    </g>
    <g id="xtick_6">
     <g id="line2d_11">
      <g>
       <use style="stroke:#000000;stroke-width:0.5;" x="40.685686" xlink:href="#m412b06a38b" y="69.840412"/>
      </g>
     </g>
     <g id="line2d_12">
      <g>
       <use style="stroke:#000000;stroke-width:0.5;" x="40.685686" xlink:href="#macdd02f504" y="6.084412"/>
      </g>
     </g>
    </g>
    <g id="xtick_7">
     <g id="line2d_13">
      <g>
       <use style="stroke:#000000;stroke-width:0.5;" x="48.695255" xlink:href="#m412b06a38b" y="69.840412"/>
      </g>
     </g>
     <g id="line2d_14">
      <g>
       <use style="stroke:#000000;stroke-width:0.5;" x="48.695255" xlink:href="#macdd02f504" y="6.084412"/>
      </g>
     </g>
    </g>
    <g id="xtick_8">
     <g id="line2d_15">
      <g>
       <use style="stroke:#000000;stroke-width:0.5;" x="64.714394" xlink:href="#m412b06a38b" y="69.840412"/>
      </g>
     </g>
     <g id="line2d_16">
      <g>
       <use style="stroke:#000000;stroke-width:0.5;" x="64.714394" xlink:href="#macdd02f504" y="6.084412"/>
      </g>
     </g>
    </g>
    <g id="xtick_9">
     <g id="line2d_17">
      <g>
       <use style="stroke:#000000;stroke-width:0.5;" x="72.723963" xlink:href="#m412b06a38b" y="69.840412"/>
      </g>
     </g>
     <g id="line2d_18">
      <g>
       <use style="stroke:#000000;stroke-width:0.5;" x="72.723963" xlink:href="#macdd02f504" y="6.084412"/>
      </g>
     </g>
    </g>
    <g id="xtick_10">
     <g id="line2d_19">
      <g>
       <use style="stroke:#000000;stroke-width:0.5;" x="80.733533" xlink:href="#m412b06a38b" y="69.840412"/>
      </g>
     </g>
     <g id="line2d_20">
      <g>
       <use style="stroke:#000000;stroke-width:0.5;" x="80.733533" xlink:href="#macdd02f504" y="6.084412"/>
      </g>
     </g>
    </g>
    <g id="xtick_11">
     <g id="line2d_21">
      <g>
       <use style="stroke:#000000;stroke-width:0.5;" x="88.743102" xlink:href="#m412b06a38b" y="69.840412"/>
      </g>
     </g>
     <g id="line2d_22">
      <g>
       <use style="stroke:#000000;stroke-width:0.5;" x="88.743102" xlink:href="#macdd02f504" y="6.084412"/>
      </g>
     </g>
    </g>
   </g>
   <g id="matplotlib.axis_2">
    <g id="ytick_1">
     <g id="line2d_23">
      <defs>
       <path d="M 0 0 
L 3 0 
" id="m52545ca48a" style="stroke:#000000;stroke-width:0.5;"/>
      </defs>
      <g>
       <use style="stroke:#000000;stroke-width:0.5;" x="14.854824" xlink:href="#m52545ca48a" y="69.840412"/>
      </g>
     </g>
     <g id="line2d_24">
      <defs>
       <path d="M 0 0 
L -3 0 
" id="m51788a0c77" style="stroke:#000000;stroke-width:0.5;"/>
      </defs>
      <g>
       <use style="stroke:#000000;stroke-width:0.5;" x="98.554824" xlink:href="#m51788a0c77" y="69.840412"/>
      </g>
     </g>
     <g id="text_4">
      <!-- $\mathdefault{84}$ -->
      <g transform="translate(3.6 72.324824)scale(0.07 -0.07)">
       <defs>
        <path d="M 2502 2399 
C 2970 2680 3123 2910 3123 3338 
C 3123 4046 2566 4544 1760 4544 
C 960 4544 397 4046 397 3338 
C 397 2917 550 2687 1011 2399 
C 493 2150 237 1774 237 1276 
C 237 446 864 -128 1760 -128 
C 2656 -128 3283 447 3283 1270 
C 3283 1774 3027 2150 2502 2399 
z
M 1760 4044 
C 2240 4044 2547 3764 2547 3325 
C 2547 2904 2234 2624 1760 2624 
C 1286 2624 973 2904 973 3331 
C 973 3764 1286 4044 1760 4044 
z
M 1760 2149 
C 2323 2149 2707 1792 2707 1263 
C 2707 729 2323 372 1747 372 
C 1197 372 813 735 813 1263 
C 813 1792 1197 2149 1760 2149 
z
" id="NimbusSanL-Regu-38" transform="scale(0.015625)"/>
        <path d="M 2093 1088 
L 2093 0 
L 2656 0 
L 2656 1088 
L 3328 1088 
L 3328 1594 
L 2656 1594 
L 2656 4545 
L 2240 4545 
L 179 1684 
L 179 1088 
L 2093 1088 
z
M 2093 1594 
L 672 1594 
L 2093 3583 
L 2093 1594 
z
" id="NimbusSanL-Regu-34" transform="scale(0.015625)"/>
       </defs>
       <use transform="scale(0.996264)" xlink:href="#NimbusSanL-Regu-38"/>
       <use transform="translate(55.391677 0)scale(0.996264)" xlink:href="#NimbusSanL-Regu-34"/>
      </g>
     </g>
    </g>
    <g id="ytick_2">
     <g id="line2d_25">
      <g>
       <use style="stroke:#000000;stroke-width:0.5;" x="14.854824" xlink:href="#m52545ca48a" y="48.588412"/>
      </g>
     </g>
     <g id="line2d_26">
      <g>
       <use style="stroke:#000000;stroke-width:0.5;" x="98.554824" xlink:href="#m51788a0c77" y="48.588412"/>
      </g>
     </g>
     <g id="text_5">
      <!-- $\mathdefault{86}$ -->
      <g transform="translate(3.6 51.072824)scale(0.07 -0.07)">
       <defs>
        <path d="M 3187 3382 
C 3078 4111 2592 4544 1901 4544 
C 1402 4544 954 4302 685 3900 
C 403 3460 275 2904 275 2081 
C 275 1321 390 836 659 434 
C 902 69 1299 -128 1798 -128 
C 2662 -128 3283 518 3283 1415 
C 3283 2268 2707 2868 1894 2868 
C 1446 2868 1094 2695 851 2362 
C 858 3444 1216 4044 1862 4044 
C 2259 4044 2534 3803 2624 3382 
L 3187 3382 
z
M 1824 2368 
C 2368 2368 2707 1986 2707 1370 
C 2707 793 2323 372 1805 372 
C 1280 372 883 813 883 1402 
C 883 1973 1267 2368 1824 2368 
z
" id="NimbusSanL-Regu-36" transform="scale(0.015625)"/>
       </defs>
       <use transform="scale(0.996264)" xlink:href="#NimbusSanL-Regu-38"/>
       <use transform="translate(55.391677 0)scale(0.996264)" xlink:href="#NimbusSanL-Regu-36"/>
      </g>
     </g>
    </g>
    <g id="ytick_3">
     <g id="line2d_27">
      <g>
       <use style="stroke:#000000;stroke-width:0.5;" x="14.854824" xlink:href="#m52545ca48a" y="27.336412"/>
      </g>
     </g>
     <g id="line2d_28">
      <g>
       <use style="stroke:#000000;stroke-width:0.5;" x="98.554824" xlink:href="#m51788a0c77" y="27.336412"/>
      </g>
     </g>
     <g id="text_6">
      <!-- $\mathdefault{88}$ -->
      <g transform="translate(3.6 29.820824)scale(0.07 -0.07)">
       <use transform="scale(0.996264)" xlink:href="#NimbusSanL-Regu-38"/>
       <use transform="translate(55.391677 0)scale(0.996264)" xlink:href="#NimbusSanL-Regu-38"/>
      </g>
     </g>
    </g>
    <g id="ytick_4">
     <g id="line2d_29">
      <g>
       <use style="stroke:#000000;stroke-width:0.5;" x="14.854824" xlink:href="#m52545ca48a" y="6.084412"/>
      </g>
     </g>
     <g id="line2d_30">
      <g>
       <use style="stroke:#000000;stroke-width:0.5;" x="98.554824" xlink:href="#m51788a0c77" y="6.084412"/>
      </g>
     </g>
     <g id="text_7">
      <!-- $\mathdefault{90}$ -->
      <g transform="translate(3.6 8.568824)scale(0.07 -0.07)">
       <defs>
        <path d="M 339 1064 
C 448 316 934 -128 1626 -128 
C 2125 -128 2579 114 2842 516 
C 3130 956 3258 1512 3258 2335 
C 3258 3095 3142 3580 2874 3982 
C 2624 4347 2227 4544 1728 4544 
C 864 4544 243 3909 243 3027 
C 243 2190 819 1600 1638 1600 
C 2067 1600 2381 1754 2675 2106 
C 2669 991 2310 372 1664 372 
C 1267 372 992 624 902 1064 
L 339 1064 
z
M 1722 4051 
C 2246 4051 2643 3622 2643 3041 
C 2643 2491 2253 2100 1702 2100 
C 1158 2100 819 2472 819 3072 
C 819 3640 1203 4051 1722 4051 
z
" id="NimbusSanL-Regu-39" transform="scale(0.015625)"/>
       </defs>
       <use transform="scale(0.996264)" xlink:href="#NimbusSanL-Regu-39"/>
       <use transform="translate(55.391677 0)scale(0.996264)" xlink:href="#NimbusSanL-Regu-30"/>
      </g>
     </g>
    </g>
    <g id="ytick_5">
     <g id="line2d_31">
      <defs>
       <path d="M 0 0 
L 1.5 0 
" id="m83afe9a2b3" style="stroke:#000000;stroke-width:0.5;"/>
      </defs>
      <g>
       <use style="stroke:#000000;stroke-width:0.5;" x="14.854824" xlink:href="#m83afe9a2b3" y="64.527412"/>
      </g>
     </g>
     <g id="line2d_32">
      <defs>
       <path d="M 0 0 
L -1.5 0 
" id="mff93dcffaa" style="stroke:#000000;stroke-width:0.5;"/>
      </defs>
      <g>
       <use style="stroke:#000000;stroke-width:0.5;" x="98.554824" xlink:href="#mff93dcffaa" y="64.527412"/>
      </g>
     </g>
    </g>
    <g id="ytick_6">
     <g id="line2d_33">
      <g>
       <use style="stroke:#000000;stroke-width:0.5;" x="14.854824" xlink:href="#m83afe9a2b3" y="59.214412"/>
      </g>
     </g>
     <g id="line2d_34">
      <g>
       <use style="stroke:#000000;stroke-width:0.5;" x="98.554824" xlink:href="#mff93dcffaa" y="59.214412"/>
      </g>
     </g>
    </g>
    <g id="ytick_7">
     <g id="line2d_35">
      <g>
       <use style="stroke:#000000;stroke-width:0.5;" x="14.854824" xlink:href="#m83afe9a2b3" y="53.901412"/>
      </g>
     </g>
     <g id="line2d_36">
      <g>
       <use style="stroke:#000000;stroke-width:0.5;" x="98.554824" xlink:href="#mff93dcffaa" y="53.901412"/>
      </g>
     </g>
    </g>
    <g id="ytick_8">
     <g id="line2d_37">
      <g>
       <use style="stroke:#000000;stroke-width:0.5;" x="14.854824" xlink:href="#m83afe9a2b3" y="43.275412"/>
      </g>
     </g>
     <g id="line2d_38">
      <g>
       <use style="stroke:#000000;stroke-width:0.5;" x="98.554824" xlink:href="#mff93dcffaa" y="43.275412"/>
      </g>
     </g>
    </g>
    <g id="ytick_9">
     <g id="line2d_39">
      <g>
       <use style="stroke:#000000;stroke-width:0.5;" x="14.854824" xlink:href="#m83afe9a2b3" y="37.962412"/>
      </g>
     </g>
     <g id="line2d_40">
      <g>
       <use style="stroke:#000000;stroke-width:0.5;" x="98.554824" xlink:href="#mff93dcffaa" y="37.962412"/>
      </g>
     </g>
    </g>
    <g id="ytick_10">
     <g id="line2d_41">
      <g>
       <use style="stroke:#000000;stroke-width:0.5;" x="14.854824" xlink:href="#m83afe9a2b3" y="32.649412"/>
      </g>
     </g>
     <g id="line2d_42">
      <g>
       <use style="stroke:#000000;stroke-width:0.5;" x="98.554824" xlink:href="#mff93dcffaa" y="32.649412"/>
      </g>
     </g>
    </g>
    <g id="ytick_11">
     <g id="line2d_43">
      <g>
       <use style="stroke:#000000;stroke-width:0.5;" x="14.854824" xlink:href="#m83afe9a2b3" y="22.023412"/>
      </g>
     </g>
     <g id="line2d_44">
      <g>
       <use style="stroke:#000000;stroke-width:0.5;" x="98.554824" xlink:href="#mff93dcffaa" y="22.023412"/>
      </g>
     </g>
    </g>
    <g id="ytick_12">
     <g id="line2d_45">
      <g>
       <use style="stroke:#000000;stroke-width:0.5;" x="14.854824" xlink:href="#m83afe9a2b3" y="16.710412"/>
      </g>
     </g>
     <g id="line2d_46">
      <g>
       <use style="stroke:#000000;stroke-width:0.5;" x="98.554824" xlink:href="#mff93dcffaa" y="16.710412"/>
      </g>
     </g>
    </g>
    <g id="ytick_13">
     <g id="line2d_47">
      <g>
       <use style="stroke:#000000;stroke-width:0.5;" x="14.854824" xlink:href="#m83afe9a2b3" y="11.397412"/>
      </g>
     </g>
     <g id="line2d_48">
      <g>
       <use style="stroke:#000000;stroke-width:0.5;" x="98.554824" xlink:href="#mff93dcffaa" y="11.397412"/>
      </g>
     </g>
    </g>
   </g>
   <g id="line2d_49">
    <path clip-path="url(#p8e81117398)" d="M 18.65937 66.758872 
L 22.664155 35.624692 
L 26.668939 42.531592 
L 30.673724 32.649412 
L 34.678509 33.712012 
L 38.683293 24.786172 
L 42.688078 22.660972 
L 46.692863 20.216992 
L 50.697647 21.917152 
L 54.702432 22.660972 
L 58.707217 18.941872 
L 62.712001 26.911372 
L 66.716786 16.816672 
L 70.721571 21.704632 
L 74.726356 17.985532 
L 78.73114 24.998692 
L 82.735925 14.053912 
L 86.74071 20.216992 
L 90.745494 16.816672 
L 94.750279 25.742512 
" style="fill:none;stroke:#000000;stroke-linecap:square;"/>
    <defs>
     <path d="M 0 0.75 
C 0.198902 0.75 0.389685 0.670975 0.53033 0.53033 
C 0.670975 0.389685 0.75 0.198902 0.75 0 
C 0.75 -0.198902 0.670975 -0.389685 0.53033 -0.53033 
C 0.389685 -0.670975 0.198902 -0.75 0 -0.75 
C -0.198902 -0.75 -0.389685 -0.670975 -0.53033 -0.53033 
C -0.670975 -0.389685 -0.75 -0.198902 -0.75 0 
C -0.75 0.198902 -0.670975 0.389685 -0.53033 0.53033 
C -0.389685 0.670975 -0.198902 0.75 0 0.75 
z
" id="m9b638f3e17" style="stroke:#000000;"/>
    </defs>
    <g clip-path="url(#p8e81117398)">
     <use style="stroke:#000000;" x="18.65937" xlink:href="#m9b638f3e17" y="66.758872"/>
     <use style="stroke:#000000;" x="22.664155" xlink:href="#m9b638f3e17" y="35.624692"/>
     <use style="stroke:#000000;" x="26.668939" xlink:href="#m9b638f3e17" y="42.531592"/>
     <use style="stroke:#000000;" x="30.673724" xlink:href="#m9b638f3e17" y="32.649412"/>
     <use style="stroke:#000000;" x="34.678509" xlink:href="#m9b638f3e17" y="33.712012"/>
     <use style="stroke:#000000;" x="38.683293" xlink:href="#m9b638f3e17" y="24.786172"/>
     <use style="stroke:#000000;" x="42.688078" xlink:href="#m9b638f3e17" y="22.660972"/>
     <use style="stroke:#000000;" x="46.692863" xlink:href="#m9b638f3e17" y="20.216992"/>
     <use style="stroke:#000000;" x="50.697647" xlink:href="#m9b638f3e17" y="21.917152"/>
     <use style="stroke:#000000;" x="54.702432" xlink:href="#m9b638f3e17" y="22.660972"/>
     <use style="stroke:#000000;" x="58.707217" xlink:href="#m9b638f3e17" y="18.941872"/>
     <use style="stroke:#000000;" x="62.712001" xlink:href="#m9b638f3e17" y="26.911372"/>
     <use style="stroke:#000000;" x="66.716786" xlink:href="#m9b638f3e17" y="16.816672"/>
     <use style="stroke:#000000;" x="70.721571" xlink:href="#m9b638f3e17" y="21.704632"/>
     <use style="stroke:#000000;" x="74.726356" xlink:href="#m9b638f3e17" y="17.985532"/>
     <use style="stroke:#000000;" x="78.73114" xlink:href="#m9b638f3e17" y="24.998692"/>
     <use style="stroke:#000000;" x="82.735925" xlink:href="#m9b638f3e17" y="14.053912"/>
     <use style="stroke:#000000;" x="86.74071" xlink:href="#m9b638f3e17" y="20.216992"/>
     <use style="stroke:#000000;" x="90.745494" xlink:href="#m9b638f3e17" y="16.816672"/>
     <use style="stroke:#000000;" x="94.750279" xlink:href="#m9b638f3e17" y="25.742512"/>
    </g>
   </g>
   <g id="patch_3">
    <path d="M 14.854824 69.840412 
L 14.854824 6.084412 
" style="fill:none;stroke:#000000;stroke-linecap:square;stroke-linejoin:miter;stroke-width:0.5;"/>
   </g>
   <g id="patch_4">
    <path d="M 98.554824 69.840412 
L 98.554824 6.084412 
" style="fill:none;stroke:#000000;stroke-linecap:square;stroke-linejoin:miter;stroke-width:0.5;"/>
   </g>
   <g id="patch_5">
    <path d="M 14.854824 69.840412 
L 98.554824 69.840412 
" style="fill:none;stroke:#000000;stroke-linecap:square;stroke-linejoin:miter;stroke-width:0.5;"/>
   </g>
   <g id="patch_6">
    <path d="M 14.854824 6.084412 
L 98.554824 6.084412 
" style="fill:none;stroke:#000000;stroke-linecap:square;stroke-linejoin:miter;stroke-width:0.5;"/>
   </g>
  </g>
 </g>
 <defs>
  <clipPath id="p8e81117398">
   <rect height="63.756" width="83.7" x="14.854824" y="6.084412"/>
  </clipPath>
 </defs>
</svg>
